#!OML:ASF F:\VICON\USERDATA\INSTALL\rory3\rory3.ASF
:FULLY-SPECIFIED
:DEGREES
37
root 0.7088302943745103 18.534916577992902 3.784236837405773 6.425070350904909 -6.179479283549455 -1.796333252542078
lfemur 9.903058342441927 -1.337554479537122 -24.024292730015073
ltibia 33.33102928831527
lfoot 31.193082814765464 -17.928690587664867
ltoes -15.6254135134071
rfemur -36.39332015219411 3.416564536549789 26.347642447301883
rtibia 38.14420838782361
rfoot 7.124857292435273 -1.7862081409151926
rtoes -5.488666021263917
lowerback 13.410308798781111 -0.8194500319637564 -0.38110071411951374
upperback -1.3192321402823204 -1.004027001466779 1.8654473901277147
thorax -8.882113196551295 -0.3278522022535916 3.572707128708012
lowerneck -18.9448222076417 -2.4435860420720132 -2.6263445287405602
upperneck 10.949733270875464 -3.20204454940956 4.434497762285742
head 7.016213452623295 -1.164505701963305 1.4323148886772668
lclavicle -1.5429984660113795e-15 -3.2951597790695655e-15
lhumerus -38.1793590501906 -9.32100718486653 86.44788593553905
lradius 122.9293189440729
lwrist 35.177442001232116
lhand -23.454688483108704 1.095692880226562
lfingers 7.12502
lthumb 3.2058652180050755 31.517757435742453
rclavicle -1.5491080671893077e-15 -3.299079971086482e-15
rhumerus -66.05247359455274 8.112110004455735 -98.53757449376839
rradius 113.02141739303657
rwrist -21.309000681416858
rhand -17.046070242642227 38.008183472053524
rfingers 7.12502
rthumb 8.18112888159903 10.79966335381586
38
root 0.7462132509991966 18.62943089665795 4.773442911589055 6.492660720429653 -6.253751302392416 -1.0961598106591366
lfemur 10.640320931899154 -3.2965746833343776 -25.329045568579684
ltibia 35.11407327376749
lfoot 32.19467619330384 -18.814300289783027
ltoes -14.990071700590274
rfemur -35.31638436394635 2.3376174769586053 26.0428029815518
rtibia 27.72401457156602
rfoot 7.1619631531702055 -1.5582717450552659
rtoes -7.462484984966704
lowerback 13.183326286494854 -1.0671526354660656 -0.9250991613520307
upperback -1.3806623988906872 -1.42150239443811 1.6968096739931464
thorax -8.665465051118847 -0.5369199858256007 3.5250849831947453
lowerneck -19.004838705143616 -2.4336602178792264 -2.647670487032939
upperneck 11.64678450804486 -3.076293192944166 4.1257753769450565
head 7.327687773401492 -1.1330828076153976 1.3154000007510644
lclavicle -1.544610642193548e-15 -3.296330855980084e-15
lhumerus -38.54074380524137 -9.611737065719907 87.89205647104555
lradius 123.11742451898135
lwrist 34.655440125176355
lhand -23.545059848544717 1.2045118599521647
lfingers 7.12502
lthumb 3.0632069823256485 31.487435403179795
rclavicle -1.5484376879613935e-15 -3.2984834410346097e-15
rhumerus -66.55292619499556 7.6472775621761295 -97.69460609359189
rradius 113.85582997309746
rwrist -21.078837933805378
rhand -16.933573718399614 37.93329605332221
rfingers 7.12502
rthumb 8.167001440571116 11.30050163139934
39
root 0.7707938669274734 18.67387171807065 5.817564591894799 6.429883286599126 -6.988857421347628 -0.4486029924319088
lfemur 10.607420535557026 -3.6356715843307725 -26.422793847354935
ltibia 38.9930847944921
lfoot 31.718730980466116 -19.16407006363093
ltoes -16.506556508796855
rfemur -34.45426550570783 1.5043460902157237 26.02348300001992
rtibia 20.97155054189694
rfoot 7.0362106609164 -2.544094534210223
rtoes -8.425136174699848
lowerback 13.169163822721972 -1.0938659908253419 -1.600515652639201
upperback -1.3404335215998557 -1.5946998025393015 1.4585692297485573
thorax -8.443494267683857 -0.6279250612006687 3.4201866166004726
lowerneck -19.188963810423456 -2.489277831051267 -2.6853413794589875
upperneck 11.988056081358735 -3.086409949894442 4.035696254313585
head 7.529096413499109 -1.1368961238393098 1.2862648457785804
lclavicle -1.5455013309274807e-15 -3.296978000524518e-15
lhumerus -38.88430649323869 -9.884426780945995 89.18115394725594
lradius 122.83355460399511
lwrist 34.27786253684616
lhand -23.74880303759564 1.2575012002808177
lfingers 7.12502
lthumb 2.78845244252381 31.348198221771668
rclavicle -1.5492930127783202e-15 -3.2990837657130065e-15
rhumerus -66.65982755893539 6.97511589582528 -96.95108855553076
rradius 114.60130983171928
rwrist -20.804359197299988
rhand -16.68292932516636 37.87119004873627
rfingers 7.12502
rthumb 8.059708858401544 11.752680791604696
40
root 0.7951860171421969 18.686164966871537 7.070110588351285 6.5274672198819275 -7.2195510992955825 -0.22170868053736914
lfemur 9.550406925719603 -3.9754644952487928 -26.768776033305542
ltibia 45.0011834243929
lfoot 30.54701325491317 -19.236786140453688
ltoes -17.598939015746573
rfemur -33.9023832803693 0.6598088977218288 26.327064849668798
rtibia 18.58085207724431
rfoot 6.691051419278521 -3.9826656359746044
rtoes -8.451602680089517
lowerback 12.9178182175248 -1.2163733498597558 -1.6667055601409442
upperback -1.0692098050898855 -1.746192598488947 1.2975845706989875
thorax -7.957263532458868 -0.717984761215206 3.253601999988259
lowerneck -19.410799560486787 -2.5574330234039024 -2.720504547143288
upperneck 11.924359739054765 -3.141199245090162 4.053941627247687
head 7.520271918124338 -1.1583051845093466 1.351210266280067
lclavicle -1.5450299319601945e-15 -3.296635738779835e-15
lhumerus -39.17769660956106 -10.073493063018507 90.21905143002903
lradius 121.95568568766997
lwrist 34.00510851341594
lhand -24.08128724717232 1.1677643152368535
lfingers 7.12502
lthumb 2.4337142999385613 31.196153004002404
rclavicle -1.5481161641195252e-15 -3.2982010688153092e-15
rhumerus -66.33007147254506 6.250337482381969 -96.2984430361345
rradius 115.16128910508884
rwrist -20.459663724858576
rhand -16.476108651177356 37.76722487304882
rfingers 7.12502
rthumb 7.999030815465662 12.088301309675284
41
root 0.839645720066734 18.627236456525715 8.325765376556456 6.295656887937499 -7.651711892959048 -0.022422168806424114
lfemur 8.044439809062151 -3.8555667584040374 -26.979698862974644
ltibia 52.27909261886949
lfoot 28.958857935285376 -19.070392517224544
ltoes -15.298581871677236
rfemur -33.533220935949764 -0.11820269620181012 26.616119977880523
rtibia 19.934385110403227
rfoot 6.065129286673508 -4.086014262937592
rtoes -9.160061497388103
lowerback 12.647922700853025 -1.1811755103609536 -1.5393683647379603
upperback -0.6299854202203603 -1.6975237720656517 1.2993420277411403
thorax -7.652445535574003 -0.692565669353523 2.987749897289785
lowerneck -19.411288434532217 -2.614040191855331 -2.7710855433344905
upperneck 11.427948803854715 -3.1712360157265027 4.154800870656766
head 7.212060726928459 -1.1930352160782105 1.4636385949102453
lclavicle -1.5444636788807497e-15 -3.2962244407209303e-15
lhumerus -39.70355744522146 -10.222829090230944 90.9215881969504
lradius 120.4666326489707
lwrist 33.68852538672118
lhand -24.462258382090926 1.1169229582253064
lfingers 7.12502
lthumb 2.0254904917399514 31.09185719209441
rclavicle -1.5481041497323467e-15 -3.298256067423794e-15
rhumerus -65.54290247745084 5.61213515357087 -95.73604245920802
rradius 115.40550286742688
rwrist -20.281603081140908
rhand -16.484094684196293 37.805682169097196
rfingers 7.12502
rthumb 8.007774752963053 12.316653333528276
42
root 0.8809027461429255 18.51199176515887 9.449780149298025 5.684314251442309 -8.618764068543152 -0.5598350780000545
lfemur 6.365588854818743 -2.5457121943922068 -25.966146544798303
ltibia 60.0809963837962
lfoot 27.096666193401596 -18.41415450866957
ltoes -10.883370218646633
rfemur -32.94607722874923 -0.757175729657265 27.822898096765805
rtibia 23.931183432516278
rfoot 4.893521274928714 -1.946606016673428
rtoes -8.665931096775353
lowerback 12.991721960507695 -0.9731639382679894 -0.9163448995334664
upperback -0.38488478564626394 -1.320128154180539 1.4682575130763762
thorax -7.865774825892677 -0.508693687590586 2.762584546539064
lowerneck -19.0641542838709 -2.6049210700919883 -2.8058854103934143
upperneck 10.641669865385968 -3.139365404271717 4.181982665430102
head 6.724027487460169 -1.2215732455022497 1.5356120517859773
lclavicle -1.5438277141171494e-15 -3.295762371856467e-15
lhumerus -40.73318125017535 -10.332221964177016 91.3779483507638
lradius 118.4488782402628
lwrist 33.0875127592478
lhand -24.803209029901396 0.9800271474652957
lfingers 7.12502
lthumb 1.7481523760577864 30.997264330854623
rclavicle -1.5493039474684716e-15 -3.2991328481997704e-15
rhumerus -64.2922929769044 5.160076593406123 -95.28943343468205
rradius 115.16280916301422
rwrist -20.299082904948193
rhand -16.663831846371984 37.717497083361216
rfingers 7.12502
rthumb 8.124301957157657 12.47977509526933
43
root 0.910291254329605 18.371510575411847 10.630282152976374 5.441988345348481 -9.35229567452233 -1.573076042872139
lfemur 4.164208744991111 -0.49694229982957916 -23.92036232507359
ltibia 68.21054839002399
lfoot 24.751812138953213 -17.14488365105481
ltoes -8.234888611225845
rfemur -32.41239624986399 -1.1729061855211014 29.381967303810967
rtibia 29.45223918528435
rfoot 2.085684938314796 0.7842310174819227
rtoes -1.0844702095697913
lowerback 13.200919375240225 -0.7996575135187446 0.08408304791008825
upperback -0.35476497607489893 -0.9460767821322031 1.748572830812396
thorax -8.420996902020855 -0.33796949619101324 2.611828645205952
lowerneck -18.628302100864385 -2.6190428308910256 -2.819608007567494
upperneck 9.858091340267435 -3.1629478266400324 4.121302598066852
head 6.273825378269196 -1.2800851149293577 1.5382587592190933
lclavicle -1.5433372297920396e-15 -3.2954058173984432e-15
lhumerus -41.66924583560041 -10.161139561523775 91.92263744174953
lradius 115.93027722982747
lwrist 32.16528738985182
lhand -25.06130457268022 0.815471707206437
lfingers 7.12502
lthumb 1.5726257628413276 30.87614771563946
rclavicle -1.5503133834940295e-15 -3.2998146801943385e-15
rhumerus -62.59932441574864 4.938580111498866 -94.99058238737095
rradius 114.39136309792681
rwrist -20.481428693903226
rhand -16.864133359041418 37.63963605032971
rfingers 7.12502
rthumb 8.029847207408032 12.257061583576597
44
root 0.9344484150006895 18.19347972451549 11.651280893920799 4.510429468603138 -10.074968397843122 -1.5445043601624366
lfemur 2.0472008873268344 1.9470389779182908 -22.923236491291597
ltibia 76.4808833817185
lfoot 21.87904726023638 -15.339984635090609
ltoes -8.627407498036867
rfemur -31.505938246719666 -1.3898823937997702 29.54658999634612
rtibia 35.60157157009756
rfoot -2.946290926883308 1.3975177746979535
rtoes 5.874141744593571
lowerback 13.97953451200163 -0.4840072594470263 0.12499001541554677
upperback -0.41684948220162477 -0.4729674579207994 1.9160780278921572
thorax -8.856590486815117 -0.1317591904020199 2.5184220535397817
lowerneck -18.4433808141509 -2.6777716745776754 -2.824781886745608
upperneck 9.305320297090852 -3.2492439289766573 4.024542254715803
head 5.9979848685106285 -1.3561905986901177 1.49537167641129
lclavicle -1.542695412476068e-15 -3.2949394456587663e-15
lhumerus -42.85616133211498 -10.017858404688958 92.35199761344627
lradius 113.50167674917822
lwrist 31.21770659825121
lhand -25.33230747899025 0.8580593797188385
lfingers 7.12502
lthumb 1.441584553312173 30.98921557703956
rclavicle -1.5507298657114432e-15 -3.3000034723386264e-15
rhumerus -60.578585097957856 4.913974252263967 -94.85901102710578
rradius 113.24414560195902
rwrist -20.701002207837384
rhand -16.98524969711196 37.62036072234821
rfingers 7.12502
rthumb 8.048776533076419 12.175847024197317
